<?xml version="1.0" standalone="no"?>
<!DOCTYPE svg PUBLIC "-//W3C//DTD SVG 20010904//EN"
 "http://www.w3.org/TR/2001/REC-SVG-20010904/DTD/svg10.dtd">
<svg version="1.0" xmlns="http://www.w3.org/2000/svg"
 width="1435.290690pt" height="662.736022pt" viewBox="0 0 1435.290690 662.736022"
 preserveAspectRatio="xMidYMid meet">
<metadata>
Created by potrace 1.16, written by Peter Selinger 2001-2019
</metadata>
<g transform="translate(-47.456209,883.028488) scale(0.100000,-0.100000)"
fill="#000000" stroke="none">
<path d="M3863 8816 c-131 -43 -322 -220 -450 -418 -38 -58 -49 -69 -86 -79
-367 -98 -790 -303 -1119 -542 -871 -635 -1546 -1733 -1715 -2792 -24 -153
-25 -541 -1 -670 35 -187 125 -422 196 -514 l19 -23 33 133 c59 242 160 531
160 459 0 -26 141 -363 215 -515 417 -852 1101 -1421 1935 -1609 342 -78 558
-50 655 82 49 67 67 119 130 388 136 580 269 1016 386 1265 l41 86 86 -22 c92
-24 288 -55 345 -55 185 0 504 -113 737 -263 47 -29 130 -82 184 -117 606
-385 1384 -151 1652 498 108 260 130 562 58 808 -64 222 -139 338 -410 634
-108 118 -363 402 -567 630 -723 808 -914 1016 -1071 1157 l-80 72 80 86 c260
284 321 399 269 509 -91 191 -678 401 -1135 407 -127 2 -128 2 -160 91 -98
267 -222 368 -387 314z m116 -333 c165 -329 190 -655 75 -995 -47 -141 -41
-188 28 -224 78 -40 141 -1 190 119 l33 80 70 -6 c290 -25 594 -180 864 -442
137 -132 1192 -1295 1248 -1375 11 -16 4 -23 -66 -63 -483 -281 -896 -837
-1023 -1381 -17 -72 -32 -132 -33 -134 -1 -1 -36 14 -78 33 -181 83 -346 126
-587 151 -184 19 -294 41 -411 84 -348 126 -593 458 -653 883 -17 125 -35 163
-83 184 -48 20 -98 9 -136 -28 l-30 -30 6 -112 c21 -398 238 -791 549 -997
l87 -57 -33 -69 c-18 -38 -57 -131 -86 -207 -61 -157 -45 -150 -175 -85 -347
174 -791 574 -1075 968 -290 403 -526 935 -651 1466 l-43 181 23 29 c55 71
216 236 299 307 l91 77 10 -52 c79 -420 111 -548 196 -783 80 -222 224 -505
291 -572 47 -48 112 -47 161 2 43 43 43 46 -11 331 -86 462 -92 838 -19 1218
37 193 66 278 108 315 46 40 82 41 91 4 68 -318 161 -441 284 -378 68 35 78
106 31 214 -164 372 -94 886 164 1208 81 101 211 213 247 213 4 0 25 -35 47
-77z m-2435 -2924 c192 -588 562 -1195 989 -1622 328 -328 685 -560 1072 -696
49 -18 90 -33 91 -34 2 -1 -26 -112 -60 -247 l-63 -245 -27 3 c-94 10 -399
124 -591 219 -464 232 -857 582 -1205 1073 -203 286 -454 792 -562 1130 -11
32 290 576 308 558 2 -3 23 -65 48 -139z m5143 -534 c109 -32 197 -167 198
-303 0 -62 -3 -76 -19 -88 -30 -21 -45 -17 -64 18 -44 81 -118 136 -203 152
-121 22 -123 190 -3 226 40 11 35 12 91 -5z m-679 -691 c12 -8 37 -39 56 -67
116 -181 261 -259 469 -256 108 2 142 -11 161 -65 54 -151 -279 -176 -513 -39
-123 72 -264 229 -291 323 -23 81 54 149 118 104z M4783 6463 c-153 -54 -232
-248 -160 -396 94 -191 347 -220 477 -56 177 225 -49 547 -317 452z M11339
8820 c-137 -41 -335 -226 -459 -427 -17 -29 -38 -53 -45 -53 -24 0 -249 -68
-341 -103 -201 -77 -450 -203 -649 -329 -947 -600 -1690 -1737 -1886 -2888
-30 -180 -34 -544 -6 -685 40 -201 105 -381 182 -500 l38 -60 43 170 c44 171
101 363 127 425 l14 33 18 -54 c10 -30 49 -126 87 -214 334 -774 812 -1319
1438 -1644 397 -206 857 -324 1080 -277 176 37 243 132 310 441 75 350 187
770 265 995 51 146 166 420 176 420 5 0 52 -11 104 -25 53 -13 148 -32 213
-40 440 -59 587 -112 942 -339 300 -193 444 -241 715 -240 256 1 469 73 677
229 422 318 568 944 334 1438 -65 137 -98 179 -502 629 -205 227 -474 528
-600 668 -450 504 -620 688 -786 853 l-169 168 90 97 c300 325 337 444 179
587 -177 160 -615 294 -1026 313 l-144 7 -33 86 c-73 190 -126 266 -210 305
-51 24 -124 30 -176 14z m85 -279 c30 -33 106 -220 138 -340 30 -109 32 -126
32 -296 1 -201 -7 -244 -71 -413 -51 -136 -47 -187 17 -225 77 -46 137 -14
193 103 l42 90 42 0 c57 0 248 -51 358 -95 292 -118 453 -258 1020 -889 143
-159 325 -362 405 -450 80 -89 193 -215 251 -282 l107 -120 -99 -58 c-507
-302 -887 -825 -1000 -1381 -12 -60 -24 -112 -25 -114 -2 -2 -47 14 -101 37
-190 78 -358 119 -583 142 -339 35 -598 149 -770 337 -151 165 -258 404 -276
618 -3 38 -10 86 -15 105 -23 94 -135 129 -201 62 -33 -33 -33 -33 -32 -130 6
-396 232 -801 569 -1018 33 -21 62 -39 64 -41 2 -1 -23 -67 -57 -145 -33 -79
-70 -171 -82 -205 -13 -35 -27 -63 -32 -63 -22 0 -218 108 -320 176 -672 449
-1156 1125 -1438 2009 -45 143 -120 435 -120 471 0 27 217 256 334 352 85 71
76 76 96 -48 39 -235 119 -545 191 -740 93 -255 241 -533 302 -571 46 -27 99
-25 136 7 43 36 47 75 22 202 -103 518 -109 1096 -15 1494 28 116 51 160 103
195 52 35 55 32 90 -99 57 -215 103 -292 187 -305 112 -18 168 92 109 219
-106 230 -114 614 -18 881 74 209 223 422 358 513 58 39 66 41 89 15z m-2424
-2941 c142 -412 364 -856 583 -1164 415 -585 886 -961 1482 -1181 l100 -37
-60 -246 c-34 -135 -66 -247 -71 -249 -40 -13 -408 127 -622 238 -717 370
-1323 1088 -1675 1984 -91 232 -91 198 -7 366 87 174 221 402 230 392 4 -5 22
-51 40 -103z m5196 -599 c93 -54 148 -152 148 -268 0 -56 -4 -76 -18 -92 -29
-32 -43 -26 -78 30 -38 63 -90 101 -174 129 -78 26 -104 55 -104 117 0 105
115 147 226 84z m-813 -702 c12 -7 40 -28 62 -48 193 -177 451 -254 681 -206
95 20 127 10 140 -41 30 -118 -221 -198 -464 -148 -244 50 -532 251 -532 371
0 61 61 99 113 72z M12150 6363 c-167 -27 -333 -157 -316 -248 17 -87 94 -97
186 -24 62 49 135 72 230 72 117 1 163 -17 290 -109 69 -50 147 -1 137 85 -15
138 -304 260 -527 224z"/>
</g>
</svg>
