<?xml version="1.0" encoding="UTF-8" standalone="no"?>
<!-- Created with Inkscape (http://www.inkscape.org/) -->

<svg
   width="1000"
   height="1000"
   viewBox="0 0 264.58333 264.58333"
   version="1.1"
   id="svg1"
   sodipodi:docname="zebra - eyes open.svg"
   inkscape:version="1.4.2 (ebf0e940, 2025-05-08)"
   xmlns:inkscape="http://www.inkscape.org/namespaces/inkscape"
   xmlns:sodipodi="http://sodipodi.sourceforge.net/DTD/sodipodi-0.dtd"
   xmlns="http://www.w3.org/2000/svg"
   xmlns:svg="http://www.w3.org/2000/svg">
  <sodipodi:namedview
     id="namedview1"
     pagecolor="#ffffff"
     bordercolor="#000000"
     borderopacity="0.25"
     inkscape:showpageshadow="2"
     inkscape:pageopacity="0.0"
     inkscape:pagecheckerboard="0"
     inkscape:deskcolor="#d1d1d1"
     inkscape:document-units="px"
     showgrid="true"
     inkscape:zoom="0.403902"
     inkscape:cx="-215.39879"
     inkscape:cy="617.7241"
     inkscape:window-width="2048"
     inkscape:window-height="1094"
     inkscape:window-x="0"
     inkscape:window-y="30"
     inkscape:window-maximized="1"
     inkscape:current-layer="layer1">
    <inkscape:grid
       id="grid3"
       units="px"
       originx="0"
       originy="0"
       spacingx="0.26458333"
       spacingy="0.26458333"
       empcolor="#0099e5"
       empopacity="0.30196078"
       color="#0099e5"
       opacity="0.14901961"
       empspacing="5"
       enabled="true"
       visible="true" />
  </sodipodi:namedview>
  <defs
     id="defs1" />
  <g
     inkscape:groupmode="layer"
     id="layer2"
     inkscape:label="background" />
  <g
     inkscape:label="zebra"
     inkscape:groupmode="layer"
     id="layer1">
    <path
       d="m 130.09718,5.6099807 c -5.02957,1.650927 -12.36276,8.4466033 -17.27714,16.0485463 -1.45896,2.226831 -1.88129,2.649162 -3.30185,3.033098 C 95.427723,28.454203 79.187207,36.324901 66.555695,45.500989 33.114825,69.880957 7.1991096,112.03719 0.71058261,152.69607 c -0.921448,5.87423 -0.959841,20.77096 -0.0384,25.72374 1.34377799,7.17961 4.79920699,16.20212 7.52515599,19.73434 l 0.729479,0.88305 1.2669914,-5.10636 c 2.265225,-9.29126 6.142984,-20.38702 6.142984,-17.62268 0,0.99823 5.413505,13.9369 8.254635,19.77273 16.010153,32.71139 42.27141,54.55737 74.291715,61.77539 13.130627,2.9947 21.423657,1.91968 25.147847,-3.14828 1.88128,-2.57238 2.57237,-4.56885 4.99117,-14.89674 5.22154,-22.26832 10.32789,-39.00795 14.81995,-48.56797 l 1.57414,-3.30185 3.30185,0.84466 c 3.53222,0.92145 11.05737,2.11165 13.24581,2.11165 7.10282,0 19.35041,4.33848 28.29612,10.09752 1.8045,1.11342 4.99118,3.14828 7.06443,4.49206 23.26656,14.78156 53.13682,5.79745 63.42631,-19.12003 4.14652,-9.98235 4.99119,-21.57723 2.22684,-31.02208 -2.45719,-8.52338 -5.33672,-12.97705 -15.74139,-24.34157 -4.14652,-4.53045 -13.9369,-15.43425 -21.76921,-24.188 C 197.7084,75.793571 190.37521,67.8077 184.34741,62.394192 l -3.07149,-2.764343 3.07149,-3.301855 c 9.98235,-10.903797 12.32436,-15.319062 10.32789,-19.542368 -3.49381,-7.333189 -26.03089,-15.395855 -43.5768,-15.626217 -4.87599,-0.07679 -4.91438,-0.07679 -6.14297,-3.493822 C 141.19295,7.4144817 136.43213,3.5367237 130.09718,5.6099807 Z m 4.45366,12.7850853 c 6.33495,12.631511 7.2948,25.147843 2.87952,38.201679 -1.80449,5.413508 -1.57413,7.218014 1.07503,8.600186 2.99471,1.535745 5.41351,0.03842 7.2948,-4.568849 l 1.26699,-3.07149 2.68755,0.230366 c 11.13416,0.959836 22.80583,6.910857 33.17211,16.969984 5.25994,5.067965 45.76524,49.719788 47.91528,52.791278 0.42233,0.61431 0.15357,0.88306 -2.53398,2.4188 -18.54413,10.78862 -34.40071,32.13549 -39.2767,53.02164 -0.65269,2.76434 -1.2286,5.06795 -1.267,5.14475 -0.0384,0.0384 -1.38217,-0.53752 -2.9947,-1.267 -6.94925,-3.18666 -13.28421,-4.8376 -22.53707,-5.79743 -7.06443,-0.72949 -11.28774,-1.57414 -15.7798,-3.22508 -13.36098,-4.8376 -22.76743,-17.58429 -25.07105,-33.90159 -0.65269,-4.79921 -1.34377,-6.25816 -3.18667,-7.06443 -1.8429,-0.76787 -3.76258,-0.34554 -5.22153,1.07502 l -1.15181,1.15181 0.23035,4.30009 c 0.80628,15.28067 9.13769,30.36938 21.07812,38.27847 l 3.34025,2.18843 -1.267,2.64917 c -0.69108,1.45896 -2.18843,5.02957 -3.30185,7.94749 -2.34201,6.0278 -1.72771,5.75905 -6.71889,3.26345 C 111.86019,191.05132 94.813433,175.69386 83.909626,160.56676 72.775466,145.09413 63.714565,124.6687 58.915359,104.28167 l -1.650928,-6.94925 0.883054,-1.11343 c 2.111651,-2.72594 8.29303,-9.060891 11.479702,-11.786848 l 3.493822,-2.956302 0.383937,1.996465 c 3.033099,16.125345 4.261696,21.039725 7.525156,30.062235 3.071493,8.52339 8.600181,19.38879 11.172561,21.96117 1.8045,1.8429 4.30008,1.8045 6.18136,-0.0767 1.650937,-1.65093 1.650937,-1.76611 -0.42232,-12.7083 -3.30185,-17.73787 -3.53221,-32.17389 -0.72948,-46.763471 1.42057,-7.409984 2.53398,-10.673443 4.146507,-12.09401 1.76611,-1.535745 3.14828,-1.57413 3.49383,-0.153573 2.61077,12.209187 6.18137,16.931599 10.90379,14.512799 2.61077,-1.343775 2.9947,-4.069722 1.19021,-8.216236 -6.29657,-14.282445 -3.60901,-34.016776 6.29655,-46.379532 3.10988,-3.877759 8.10107,-8.177847 9.48324,-8.177847 0.15357,0 0.95984,1.343777 1.80449,2.956311 z M 41.062311,130.65811 c 7.371581,22.57547 21.577231,45.88041 37.97132,62.2745 12.593122,12.59312 26.299649,21.50045 41.157989,26.72199 1.88129,0.69108 3.45543,1.26698 3.49382,1.30538 0.0768,0.0384 -0.99823,4.30008 -2.30362,9.48323 l -2.4188,9.40645 -1.03663,-0.11519 c -3.609,-0.38393 -15.31906,-4.76081 -22.690637,-8.40821 -17.814654,-8.90732 -32.90336,-22.34511 -46.26435,-41.19639 -7.793912,-10.98058 -17.430717,-30.40777 -21.577233,-43.38482 -0.422329,-1.2286 11.13416,-22.11474 11.825246,-21.42366 0.07678,0.11518 0.883053,2.49559 1.842895,5.33672 z m 197.458539,20.50221 c 4.18491,1.2286 7.56355,6.41174 7.60195,11.63327 0,2.38042 -0.11518,2.91792 -0.72949,3.37865 -1.1518,0.80626 -1.72771,0.65269 -2.45719,-0.69109 -1.68932,-3.10988 -4.53044,-5.22154 -7.79391,-5.83583 -4.64563,-0.84467 -4.72241,-7.2948 -0.11518,-8.67697 1.53574,-0.42233 1.34378,-0.46073 3.49382,0.19197 z m -26.06928,26.53001 c 0.46072,0.30715 1.42055,1.49736 2.15004,2.57237 4.45367,6.94926 10.02074,9.94396 18.00662,9.82878 4.14651,-0.0767 5.4519,0.42233 6.18137,2.49559 2.07326,5.79744 -10.71182,6.75728 -19.69594,1.49735 -4.72241,-2.76435 -10.13592,-8.79215 -11.17255,-12.40115 -0.88305,-3.10989 2.07326,-5.72065 4.53046,-3.99294 z M 165.41933,95.95024 c -5.87422,2.07327 -8.90732,9.52164 -6.14297,15.20389 3.609,7.3332 13.32259,8.44661 18.31377,2.15004 6.79568,-8.63857 -1.88129,-21.00132 -12.1708,-17.35393 z"
       id="path1-9"
       sodipodi:nodetypes="cccccccccscccccccsccccccccccccccccccccccccccccccccccccccccccccccscccccccsccscccccccccccccccccccccccccccc"
       style="display:none;fill:#1a1a1a;stroke-width:0.0383937"
       inkscape:label="head - complete"
       sodipodi:insensitive="true" />
    <path
       d="m 130.09718,5.6099807 c -5.02957,1.650927 -12.36276,8.4466033 -17.27714,16.0485463 -1.45896,2.226831 -1.88129,2.649162 -3.30185,3.033098 C 95.427723,28.454203 79.187207,36.324901 66.555695,45.500989 33.114825,69.880957 7.1991096,112.03719 0.71058261,152.69607 c -0.921448,5.87423 -0.959841,20.77096 -0.0384,25.72374 1.34377799,7.17961 4.79920699,16.20212 7.52515599,19.73434 l 0.729479,0.88305 1.2669914,-5.10636 c 2.265225,-9.29126 6.142984,-20.38702 6.142984,-17.62268 0,0.99823 5.413505,13.9369 8.254635,19.77273 16.010153,32.71139 42.27141,54.55737 74.291715,61.77539 13.130627,2.9947 21.423657,1.91968 25.147847,-3.14828 1.88128,-2.57238 2.57237,-4.56885 4.99117,-14.89674 5.22154,-22.26832 10.32789,-39.00795 14.81995,-48.56797 l 1.57414,-3.30185 3.30185,0.84466 c 3.53222,0.92145 11.05737,2.11165 13.24581,2.11165 7.10282,0 19.35041,4.33848 28.29612,10.09752 1.8045,1.11342 4.99118,3.14828 7.06443,4.49206 23.26656,14.78156 53.13682,5.79745 63.42631,-19.12003 4.14652,-9.98235 4.99119,-21.57723 2.22684,-31.02208 -2.45719,-8.52338 -5.33672,-12.97705 -15.74139,-24.34157 -4.14652,-4.53045 -13.9369,-15.43425 -21.76921,-24.188 C 197.7084,75.793571 190.37521,67.8077 184.34741,62.394192 l -3.07149,-2.764343 3.07149,-3.301855 c 9.98235,-10.903797 12.32436,-15.319062 10.32789,-19.542368 -3.49381,-7.333189 -26.03089,-15.395855 -43.5768,-15.626217 -4.87599,-0.07679 -4.91438,-0.07679 -6.14297,-3.493822 C 141.19295,7.4144817 136.43213,3.5367237 130.09718,5.6099807 Z m 4.45366,12.7850853 c 6.33495,12.631511 7.2948,25.147843 2.87952,38.201679 -1.80449,5.413508 -1.57413,7.218014 1.07503,8.600186 2.99471,1.535745 5.41351,0.03842 7.2948,-4.568849 l 1.26699,-3.07149 2.68755,0.230366 c 11.13416,0.959836 22.80583,6.910857 33.17211,16.969984 5.25994,5.067965 45.76524,49.719788 47.91528,52.791278 0.42233,0.61431 0.15357,0.88306 -2.53398,2.4188 -18.54413,10.78862 -34.40071,32.13549 -39.2767,53.02164 -0.65269,2.76434 -1.2286,5.06795 -1.267,5.14475 -0.0384,0.0384 -1.38217,-0.53752 -2.9947,-1.267 -6.94925,-3.18666 -13.28421,-4.8376 -22.53707,-5.79743 -7.06443,-0.72949 -11.28774,-1.57414 -15.7798,-3.22508 -13.36098,-4.8376 -22.76743,-17.58429 -25.07105,-33.90159 -0.65269,-4.79921 -1.34377,-6.25816 -3.18667,-7.06443 -1.8429,-0.76787 -3.76258,-0.34554 -5.22153,1.07502 l -1.15181,1.15181 0.23035,4.30009 c 0.80628,15.28067 9.13769,30.36938 21.07812,38.27847 l 3.34025,2.18843 -1.267,2.64917 c -0.69108,1.45896 -2.18843,5.02957 -3.30185,7.94749 -2.34201,6.0278 -1.72771,5.75905 -6.71889,3.26345 C 111.86019,191.05132 94.813433,175.69386 83.909626,160.56676 72.775466,145.09413 63.714565,124.6687 58.915359,104.28167 l -1.650928,-6.94925 0.883054,-1.11343 c 2.111651,-2.72594 8.29303,-9.060891 11.479702,-11.786848 l 3.493822,-2.956302 0.383937,1.996465 c 3.033099,16.125345 4.261696,21.039725 7.525156,30.062235 3.071493,8.52339 8.600181,19.38879 11.172561,21.96117 1.8045,1.8429 4.30008,1.8045 6.18136,-0.0767 1.650937,-1.65093 1.650937,-1.76611 -0.42232,-12.7083 -3.30185,-17.73787 -3.53221,-32.17389 -0.72948,-46.763471 1.42057,-7.409984 2.53398,-10.673443 4.146507,-12.09401 1.76611,-1.535745 3.14828,-1.57413 3.49383,-0.153573 2.61077,12.209187 6.18137,16.931599 10.90379,14.512799 2.61077,-1.343775 2.9947,-4.069722 1.19021,-8.216236 -6.29657,-14.282445 -3.60901,-34.016776 6.29655,-46.379532 3.10988,-3.877759 8.10107,-8.177847 9.48324,-8.177847 0.15357,0 0.95984,1.343777 1.80449,2.956311 z M 41.062311,130.65811 c 7.371581,22.57547 21.577231,45.88041 37.97132,62.2745 12.593122,12.59312 26.299649,21.50045 41.157989,26.72199 1.88129,0.69108 3.45543,1.26698 3.49382,1.30538 0.0768,0.0384 -0.99823,4.30008 -2.30362,9.48323 l -2.4188,9.40645 -1.03663,-0.11519 c -3.609,-0.38393 -15.31906,-4.76081 -22.690637,-8.40821 -17.814654,-8.90732 -32.90336,-22.34511 -46.26435,-41.19639 -7.793912,-10.98058 -17.430717,-30.40777 -21.577233,-43.38482 -0.422329,-1.2286 11.13416,-22.11474 11.825246,-21.42366 0.07678,0.11518 0.883053,2.49559 1.842895,5.33672 z m 197.458539,20.50221 c 4.18491,1.2286 7.56355,6.41174 7.60195,11.63327 0,2.38042 -0.11518,2.91792 -0.72949,3.37865 -1.1518,0.80626 -1.72771,0.65269 -2.45719,-0.69109 -1.68932,-3.10988 -4.53044,-5.22154 -7.79391,-5.83583 -4.64563,-0.84467 -4.72241,-7.2948 -0.11518,-8.67697 1.53574,-0.42233 1.34378,-0.46073 3.49382,0.19197 z m -26.06928,26.53001 c 0.46072,0.30715 1.42055,1.49736 2.15004,2.57237 4.45367,6.94926 10.02074,9.94396 18.00662,9.82878 4.14651,-0.0767 5.4519,0.42233 6.18137,2.49559 2.07326,5.79744 -10.71182,6.75728 -19.69594,1.49735 -4.72241,-2.76435 -10.13592,-8.79215 -11.17255,-12.40115 -0.88305,-3.10989 2.07326,-5.72065 4.53046,-3.99294 z"
       id="path3"
       sodipodi:nodetypes="cccccccccscccccccsccccccccccccccccccccccccccccccccccccccccccccccscccccccscccccccccccccccccccccccccccc"
       style="display:inline;fill:#1a1a1a;stroke-width:0.0383937"
       inkscape:label="head - no eyes"
       sodipodi:insensitive="true" />
    <path
       d="m 165.41933,95.950235 c -5.87422,2.073275 -8.90732,9.521645 -6.14297,15.203895 3.609,7.3332 13.32259,8.44661 18.31377,2.15004 6.79568,-8.63857 -1.88129,-21.001325 -12.1708,-17.353935 z"
       style="display:inline;fill:#1a1a1a;stroke-width:0.0383937"
       id="path1"
       inkscape:label="eye - open"
       sodipodi:insensitive="true" />
    <path
       d="m 165.49582,98.249971 c -5.89139,0.9525 -11.7475,5.538609 -11.14778,8.748879 0.59972,3.06917 3.31611,3.42195 6.56167,0.84667 2.18722,-1.72861 4.7625,-2.54 8.11389,-2.54 4.1275,-0.0353 5.75028,0.59972 10.23055,3.84528 2.43417,1.76389 5.18584,0.0353 4.83306,-2.99861 -0.52917,-4.86834 -10.72445,-9.172219 -18.59139,-7.902219 z"
       id="path1-9-2"
       sodipodi:nodetypes="ccccccc"
       style="display:none;fill:#1a1a1a;stroke-width:0.0352778"
       inkscape:label="eye - closed"
       sodipodi:insensitive="true" />
  </g>
</svg>
